# Wavefront OBJ file
# Creator: GIANTS Editor 64bit 9.0.2
# Name: untitled
# Scale: 100

g default

v 63.9639 -8.67279 -0.749827
v 61.3037 -8.67279 -0.749826
v 63.9639 -9.56526 -1.96304
v 61.3037 -9.56526 -1.96304
v 63.9639 -11.0093 -2.42645
v 61.3037 -12.4533 -1.96304
v 63.9639 -13.3458 -0.749828
v 63.9639 -12.4533 -1.96304
v 61.3037 -11.0093 -2.42644
v 61.1221 -11.0093 -2.42644
v -63.9639 -11.0093 -2.4264
v 61.1221 -12.4533 1.963
v 61.1221 -13.3458 0.749786
v 63.9639 -13.3458 0.749785
v 61.3037 -13.3458 -0.749827
v 61.3037 -13.3458 0.749786
v 61.1221 -13.3458 -0.749827
v 61.1221 -12.4533 -1.96304
v 63.9639 -13.207 0.938443
v -63.9639 -9.56526 -1.963
v 61.1221 -9.56526 -1.96304
v -63.9639 -8.67279 -0.749785
v 61.1221 -8.67279 -0.749826
v -63.9639 -13.3458 -0.749786
v -63.9639 -13.3458 0.749827
v -63.9639 -12.4533 -1.963
v -63.9639 -12.4533 1.96304
v 61.3037 -8.67279 0.749786
v 61.3037 -8.67279 -0.749826
v 63.9639 -8.67279 0.749786
v 63.9639 -8.67279 -0.749827
v 61.1221 -8.67279 -0.749826
v 63.9639 -12.4533 1.963
v 61.3037 -12.4533 1.963
v 63.9639 -11.0093 2.4264
v 63.9639 -9.56526 1.963
v 61.3037 -9.56526 1.963
v 61.3037 -11.0093 2.4264
v -63.9639 -9.56526 1.96304
v -63.9639 -8.67279 -0.749785
v -63.9639 -8.67279 0.749827
v 61.1221 -8.67279 0.749786
v -63.9639 -11.0093 2.42645
v 61.1221 -11.0093 2.4264
v 61.1221 -9.56526 1.963
v -63.9639 -13.207 0.938484
vt 0.388502 0.0805742
vt 0.388466 0.0981346
vt 0.398782 0.0805867
vt 0.39876 0.0981385
vt 0.409132 0.0805919
vt 0.419492 0.0981387
vt 0.429803 0.0805659
vt 0.419482 0.0805912
vt 0.409126 0.0981393
vt 0.409126 0.0993375
vt 0.409125 0.925983
vt 0.450339 0.0993372
vt 0.440042 0.0993372
vt 0.440048 0.0805694
vt 0.429791 0.0981364
vt 0.440041 0.0981382
vt 0.42979 0.0993371
vt 0.419493 0.0993372
vt 0.441651 0.0805493
vt 0.398757 0.925983
vt 0.398758 0.0993375
vt 0.38846 0.925983
vt 0.388461 0.0993373
vt 0.42979 0.925983
vt 0.440042 0.925983
vt 0.419493 0.925983
vt 0.450338 0.925983
vt 0.481371 0.0981345
vt 0.491625 0.0981393
vt 0.481378 0.0805627
vt 0.491646 0.0805575
vt 0.491624 0.0993377
vt 0.450348 0.0805519
vt 0.450339 0.0981363
vt 0.460716 0.0805561
vt 0.471083 0.0805592
vt 0.471076 0.098137
vt 0.460707 0.0981368
vt 0.471075 0.925983
vt 0.491624 0.925983
vt 0.481372 0.925983
vt 0.481371 0.0993375
vt 0.460707 0.925983
vt 0.460707 0.0993373
vt 0.471075 0.0993374
vt 0.441643 0.925983
vn -1.00086e-07 0.949916 -0.312505
vn -1.00086e-07 0.949916 -0.312505
vn -2.64567e-07 0.583005 -0.812468
vn -2.64567e-07 0.583005 -0.812468
vn -3.25793e-07 -4.37613e-08 -1
vn -2.64518e-07 -0.583005 -0.812468
vn -1.06819e-07 -0.949916 -0.312505
vn -2.64518e-07 -0.583005 -0.812468
vn -3.25793e-07 -4.37613e-08 -1
vn -3.25793e-07 -4.37613e-08 -1
vn -3.25793e-07 -4.37613e-08 -1
vn 2.65957e-07 -0.583005 0.812468
vn 9.66648e-08 -0.949916 0.312504
vn 9.66648e-08 -0.949916 0.312504
vn -1.06819e-07 -0.949916 -0.312505
vn 9.66648e-08 -0.949916 0.312504
vn -1.06819e-07 -0.949916 -0.312505
vn -2.64518e-07 -0.583005 -0.812468
vn 1.93081e-07 -0.805524 0.592563
vn -2.64567e-07 0.583005 -0.812468
vn -2.64567e-07 0.583005 -0.812468
vn -1.00086e-07 0.949916 -0.312505
vn -1.00086e-07 0.949916 -0.312505
vn -1.06819e-07 -0.949916 -0.312505
vn 9.66648e-08 -0.949916 0.312504
vn -2.64518e-07 -0.583005 -0.812468
vn 2.65957e-07 -0.583005 0.812468
vn 1.05306e-07 0.949916 0.312505
vn -1.00086e-07 0.949916 -0.312505
vn 1.05306e-07 0.949916 0.312505
vn -1.00086e-07 0.949916 -0.312505
vn -1.00086e-07 0.949916 -0.312505
vn 2.65957e-07 -0.583005 0.812468
vn 2.65957e-07 -0.583005 0.812468
vn 3.28249e-07 5.83484e-08 1
vn 2.67828e-07 0.583005 0.812468
vn 2.67828e-07 0.583005 0.812468
vn 3.28249e-07 5.83484e-08 1
vn 2.67828e-07 0.583005 0.812468
vn -1.00086e-07 0.949916 -0.312505
vn 1.05306e-07 0.949916 0.312505
vn 1.05306e-07 0.949916 0.312505
vn 3.28249e-07 5.83484e-08 1
vn 3.28249e-07 5.83484e-08 1
vn 2.67828e-07 0.583005 0.812468
vn 1.93081e-07 -0.805524 0.592563
s off
g emissive
f 1/1/1 3/3/3 2/2/2
f 2/2/2 4/4/4 23/23/23
f 3/3/3 4/4/4 2/2/2
f 3/3/3 5/5/5 4/4/4
f 4/4/4 9/9/9 21/21/21
f 4/4/4 21/21/21 23/23/23
f 5/5/5 8/8/8 9/9/9
f 5/5/5 9/9/9 4/4/4
f 6/6/6 15/15/15 18/18/18
f 6/6/6 18/18/18 10/10/10
f 7/7/7 14/14/14 15/15/15
f 7/7/7 15/15/15 6/6/6
f 8/8/8 6/6/6 9/9/9
f 8/8/8 7/7/7 6/6/6
f 9/9/9 6/6/6 10/10/10
f 9/9/9 10/10/10 21/21/21
f 10/10/10 20/20/20 21/21/21
f 11/11/11 20/20/20 10/10/10
f 12/12/12 46/46/46 13/13/13
f 13/13/13 24/24/24 17/17/17
f 14/14/14 16/16/16 15/15/15
f 14/14/14 19/19/19 16/16/16
f 15/15/15 16/16/16 17/17/17
f 15/15/15 17/17/17 18/18/18
f 16/16/16 13/13/13 17/17/17
f 16/16/16 34/34/34 13/13/13
f 17/17/17 26/26/26 18/18/18
f 18/18/18 11/11/11 10/10/10
f 19/19/19 34/34/34 16/16/16
f 20/20/20 22/22/22 21/21/21
f 21/21/21 22/22/22 23/23/23
f 24/24/24 26/26/26 17/17/17
f 25/25/25 13/13/13 46/46/46
f 25/25/25 24/24/24 13/13/13
f 26/26/26 11/11/11 18/18/18
f 27/27/27 46/46/46 12/12/12
f 28/28/28 29/29/29 42/42/42
f 28/28/28 42/42/42 45/45/45
f 29/29/29 32/32/32 42/42/42
f 30/30/30 28/28/28 37/37/37
f 30/30/30 31/31/31 28/28/28
f 31/31/31 29/29/29 28/28/28
f 32/32/32 41/41/41 42/42/42
f 33/33/33 34/34/34 19/19/19
f 33/33/33 35/35/35 34/34/34
f 34/34/34 12/12/12 13/13/13
f 34/34/34 38/38/38 12/12/12
f 35/35/35 36/36/36 38/38/38
f 35/35/35 38/38/38 34/34/34
f 36/36/36 30/30/30 37/37/37
f 36/36/36 37/37/37 38/38/38
f 37/37/37 28/28/28 45/45/45
f 37/37/37 45/45/45 44/44/44
f 38/38/38 37/37/37 44/44/44
f 38/38/38 44/44/44 12/12/12
f 39/39/39 43/43/43 45/45/45
f 40/40/40 41/41/41 32/32/32
f 41/41/41 39/39/39 42/42/42
f 42/42/42 39/39/39 45/45/45
f 43/43/43 27/27/27 44/44/44
f 44/44/44 27/27/27 12/12/12
f 45/45/45 43/43/43 44/44/44
